<svg width="100%" height="100%" viewBox="0 0 1512 705" fill="none" xmlns="http://www.w3.org/2000/svg">
<g filter="url(#filter0_f_63_3023)">
<path d="M0 0H1512V703H0V0Z" fill="#00DB16"/>
<path d="M647.25 159.412C309.727 146.204 127.648 454.508 46.5 508.266L-440 723.129L1122.14 755.266C1243.11 592.028 1445.37 275.811 1286.6 316.852C1088.15 368.153 1069.15 175.923 647.25 159.412Z" fill="url(#paint0_linear_63_3023)" fill-opacity="0.2"/>
<path d="M-39.6041 -186.074C-20.902 -259.699 96.7553 -381.24 417.768 -278.401C667.2 -198.494 787.208 -88.3011 808.28 70.4065C867.094 30.342 945.672 -6.78992 1048.43 -39.0595C1627.39 -220.874 1596 477.975 1507.93 850.127C1461.77 1012.53 1274.28 1301.54 893.605 1158.36C512.935 1015.18 689.066 742.648 824.715 624.279C763.2 570.628 698.699 490.981 670.909 402.696C505.752 503.679 224.836 493.496 28.0476 352.416C-250.921 152.42 -88.1348 -37.6391 -39.6041 -186.074Z" fill="#1FB7CD"/>
<path d="M-222.856 624.844C-493.364 753.972 -367.46 858.792 -270.695 895.062C-270.695 993.781 61.0959 856.287 247.668 1039.6C480.883 1268.75 436.673 1352.33 674.781 1039.6C865.268 789.417 519.012 644.06 415.904 649.344C355.316 611.876 170.356 341.831 23.6087 338.019C-72.3525 335.527 -115.903 573.79 -222.856 624.844Z" fill="#CE42FF" fill-opacity="0.7"/>
<path d="M807.849 -160.667C431.712 -71.0815 606.779 1.64018 741.33 26.8028C741.33 95.2918 806.186 264.065 1065.61 391.244C1389.89 550.219 1463.97 279.262 1795.06 62.2971C2059.93 -111.275 1839.4 -147.336 1696.03 -143.67C1556.7 -186.663 1183.99 -250.253 807.849 -160.667Z" fill="#FF8139" fill-opacity="0.7"/>
</g>
<defs>
<filter id="filter0_f_63_3023" x="-668" y="-546" width="2815" height="2018" filterUnits="userSpaceOnUse" color-interpolation-filters="sRGB">
<feFlood flood-opacity="0" result="BackgroundImageFix"/>
<feBlend mode="normal" in="SourceGraphic" in2="BackgroundImageFix" result="shape"/>
<feGaussianBlur stdDeviation="114" result="effect1_foregroundBlur_63_3023"/>
</filter>
<linearGradient id="paint0_linear_63_3023" x1="739.5" y1="-319.923" x2="736.904" y2="753.427" gradientUnits="userSpaceOnUse">
<stop stop-color="white"/>
<stop offset="1" stop-color="white" stop-opacity="0"/>
</linearGradient>
</defs>
</svg>
