<svg width="100%" height="100%" viewBox="0 0 3024 1410" fill="none" xmlns="http://www.w3.org/2000/svg">
<g filter="url(#filter0_f_63_3023)">
<path d="M1294.5 318.824C619.455 292.407 255.296 909.017 93.0001 1016.53L-880 1446.26L2244.28 1510.53C2486.23 1184.06 2890.73 551.623 2573.21 633.704C2176.3 736.305 2138.31 351.845 1294.5 318.824Z" fill="url(#paint0_linear_63_3023)" fill-opacity="0.2"/>
<path d="M-79.2081 -372.147C-41.804 -519.398 193.511 -762.48 835.536 -556.803C1334.4 -396.987 1574.42 -176.602 1616.56 140.813C1734.19 60.6842 1891.35 -13.5798 2096.86 -78.119C3254.78 -441.748 3192 955.951 3015.87 1700.25C2923.54 2025.06 2548.55 2603.08 1787.21 2316.72C1025.87 2030.36 1378.13 1485.3 1649.43 1248.56C1526.4 1141.26 1397.4 981.962 1341.82 805.391C1011.5 1007.36 449.672 986.993 56.0953 704.833C-501.842 304.841 -176.269 -75.2781 -79.2081 -372.147Z" fill="#1FB7CD"/>
<path d="M-445.712 1249.69C-986.728 1507.94 -734.921 1717.59 -541.39 1790.12C-541.39 1987.56 122.192 1712.57 495.336 2079.2C961.767 2537.49 873.347 2704.67 1349.56 2079.2C1730.54 1578.83 1038.02 1288.12 831.808 1298.69C710.632 1223.75 340.711 683.663 47.2175 676.039C-144.705 671.054 -231.806 1147.58 -445.712 1249.69Z" fill="#CE42FF" fill-opacity="0.7"/>
<path d="M1615.7 -321.334C863.424 -142.163 1213.56 3.28044 1482.66 53.6057C1482.66 190.584 1612.37 528.129 2131.22 782.489C2779.79 1100.44 2927.95 558.525 3590.12 124.594C4119.85 -222.55 3678.81 -294.672 3392.07 -287.339C3113.39 -373.326 2367.97 -500.505 1615.7 -321.334Z" fill="#FF8139" fill-opacity="0.7"/>
</g>
<defs>
<filter id="filter0_f_63_3023" x="-1108" y="-864" width="5174" height="3580" filterUnits="userSpaceOnUse" color-interpolation-filters="sRGB">
<feFlood flood-opacity="0" result="BackgroundImageFix"/>
<feBlend mode="normal" in="SourceGraphic" in2="BackgroundImageFix" result="shape"/>
<feGaussianBlur stdDeviation="228" result="effect1_foregroundBlur_63_3023"/>
</filter>
<linearGradient id="paint0_linear_63_3023" x1="1479" y1="-639.846" x2="1473.81" y2="1506.85" gradientUnits="userSpaceOnUse">
<stop stop-color="white"/>
<stop offset="1" stop-color="white" stop-opacity="0"/>
</linearGradient>
</defs>
</svg>
