<svg width="47" height="47" viewBox="0 0 47 47" fill="none" xmlns="http://www.w3.org/2000/svg">
    <path fill-rule="evenodd" clip-rule="evenodd"
        d="M25.0275 0.738479L23.9372 2.41517L22.7847 0.780628L23.8918 0L25.0275 0.738479ZM23.9512 5.06431C24.1665 5.28814 24.3972 5.54933 24.6296 5.84768C25.5855 7.07458 26.5497 8.89843 26.6367 11.358C26.6975 13.0777 25.5791 15.2122 24.0685 17.1739C23.3561 18.099 22.6333 18.888 22.0869 19.4465C21.815 19.7246 21.5898 19.9423 21.4355 20.088C21.3585 20.1607 21.2994 20.2152 21.2613 20.2501L21.2203 20.2872L21.2126 20.2941C21.2129 20.2939 21.2132 20.2936 22.5395 21.7905C23.8658 23.2875 23.8662 23.2872 23.8666 23.2868L23.8697 23.2841L23.8758 23.2787L23.8947 23.2617C23.9103 23.2477 23.9317 23.2283 23.9585 23.2038C24.0122 23.1548 24.0876 23.0852 24.1817 22.9963C24.3698 22.8188 24.6331 22.5638 24.9463 22.2437C25.5702 21.6059 26.4043 20.6966 27.2377 19.6144C28.8188 17.5612 30.7484 14.4441 30.6342 11.2166C30.5106 7.72222 29.1256 5.10998 27.785 3.3893C27.1165 2.53121 26.4537 1.88701 25.9498 1.45125C25.697 1.23273 25.4819 1.06465 25.3227 0.946452C25.2431 0.887294 25.1772 0.840447 25.1273 0.805849C25.1023 0.788544 25.0813 0.774285 25.0646 0.763064L25.0427 0.748503L25.0343 0.742924L25.0307 0.74056L25.029 0.739484C25.0282 0.738976 25.0275 0.738479 23.9372 2.41517C22.7847 0.780628 22.784 0.781069 22.7834 0.781522L22.7789 0.78469L22.7714 0.790047L22.7511 0.804639C22.7353 0.816083 22.7149 0.830968 22.6903 0.849253C22.6411 0.88581 22.5748 0.936045 22.4939 0.999648C22.3323 1.12671 22.1112 1.30799 21.8506 1.54105C21.3315 2.00524 20.6436 2.68554 19.9538 3.56336C18.5865 5.30342 17.1156 7.94689 17.1156 11.2873H21.1156C21.1156 9.15533 22.0555 7.36271 23.0989 6.03481C23.3906 5.6637 23.6828 5.33882 23.9512 5.06431ZM25.0956 4.04554C25.0966 4.04484 25.0968 4.04466 25.0956 4.04554ZM4.97746 20.9205C5.08633 21.46 5.24845 22.0995 5.48857 22.7797C6.16667 24.7007 7.39953 26.7717 9.63508 28.0035C11.3943 28.9728 13.9513 29.4021 16.2677 29.548C16.9754 29.5926 17.6339 29.6093 18.2035 29.6113C17.5754 26.1201 15.284 23.7138 12.8037 22.2309C10.0876 20.6068 7.09396 20.5159 4.97746 20.9205ZM18.1715 33.6112C17.6927 36.6626 16.4587 38.9398 14.8858 40.5129C12.9562 42.4426 10.4081 43.4249 7.77362 43.4152L7.75891 47.4152C11.4089 47.4286 14.996 46.0598 17.7143 43.3412C20.4417 40.6135 22.1871 36.6384 22.3711 31.62L22.3725 31.5834V31.5468C22.3725 25.1638 18.5681 21.017 14.8565 18.7977C10.1114 15.9606 4.88222 16.517 2.05216 17.5988L0.715332 18.1098L0.767599 19.54L2.76626 19.4669C0.767599 19.54 0.767628 19.5407 0.767658 19.5416L0.767724 19.5433L0.767879 19.5473L0.768292 19.5573L0.769574 19.5853C0.770653 19.6073 0.772208 19.6363 0.774402 19.6718C0.77879 19.7427 0.785745 19.8399 0.796589 19.9606C0.818253 20.2016 0.855582 20.5377 0.919375 20.9461C1.04642 21.7593 1.28136 22.8779 1.71666 24.1111C2.58007 26.5571 4.29902 29.6303 7.7047 31.5068C10.2676 32.919 13.5619 33.3855 16.0163 33.5401C16.8054 33.5898 17.5375 33.6087 18.1715 33.6112ZM32.8588 18.7977C37.6039 15.9606 42.8331 16.517 45.6631 17.5988L47 18.1098L46.9477 19.54L44.949 19.4669C46.9477 19.54 46.9477 19.5407 46.9476 19.5416L46.9476 19.5433L46.9474 19.5473L46.947 19.5573L46.9457 19.5853C46.9447 19.6073 46.9431 19.6363 46.9409 19.6718C46.9365 19.7427 46.9296 19.8399 46.9187 19.9606C46.8971 20.2016 46.8597 20.5377 46.7959 20.9461C46.6689 21.7593 46.4339 22.8779 45.9986 24.1111C45.1352 26.5571 43.4163 29.6303 40.0106 31.5068C37.4477 32.919 34.1534 33.3855 31.699 33.5401C30.9099 33.5898 30.1779 33.6087 29.5439 33.6112C30.0471 36.8118 31.3816 39.1125 33.0365 40.6648C35.0619 42.5647 37.6905 43.461 40.2304 43.4155L40.3021 47.4148C36.7932 47.4778 33.1361 46.2425 30.3 43.5823C27.4411 40.9006 25.5372 36.8865 25.3442 31.62L25.3429 31.5834V31.5468C25.3429 25.1638 29.1472 21.017 32.8588 18.7977ZM29.5118 29.6113C30.1399 26.1201 32.4313 23.7138 34.9116 22.2309C37.6277 20.6068 40.6213 20.5159 42.7378 20.9205C42.629 21.46 42.4669 22.0995 42.2267 22.7797C41.5486 24.7007 40.3158 26.7717 38.0802 28.0035C36.321 28.9728 33.764 29.4021 31.4476 29.548C30.7399 29.5926 30.0814 29.6093 29.5118 29.6113ZM42.9506 19.387C42.9507 19.3866 42.9507 19.3867 42.9506 19.387Z"
        fill="#1EB7CE" />
</svg>