<svg width="100%" height="auto" viewBox="0 0 1734 1393" fill="none" xmlns="http://www.w3.org/2000/svg">
<path opacity="0.3" d="M1720.9 978.301C1607.7 968.829 1527.8 938.7 1475.45 912.617C1422.5 886.239 1384.37 857.303 1314.69 841.746C1237.84 824.461 1187.63 832.205 1167.77 836.561C1140.23 842.611 1141.94 846.725 1096.9 860.76C1010.37 887.726 993.927 875.73 955.156 893.603C890.871 923.23 910.041 968.189 842.8 1018.06C794.107 1054.18 713.488 1082.93 640.561 1063C571.886 1044.23 564.159 997.091 491.906 990.401C462.227 987.653 437.544 993.755 388.194 1005.96C324.946 1021.51 282.476 1040.7 265.467 1047.44C215.08 1067.44 133.752 1080.03 1.00009 1040.53M1721.66 993.547C1612.16 985.371 1530.29 958.095 1473.18 931.061C1426.79 908.797 1391.41 884.39 1342.64 866.949C1331.98 863.146 1320.74 859.464 1308.64 856.284C1232.4 836.267 1182.37 839.569 1161.49 841.591C1133.49 844.288 1133.49 847.364 1089.34 861.003C1058.23 870.596 1036.07 876.076 1018.9 879.671C989.727 885.773 975.121 886.187 952.096 897.924C943.505 902.268 935.443 907.586 928.07 913.775C893.965 942.382 895.417 978.647 838.842 1017.09C789.596 1050.55 709.513 1075.86 637.83 1056.07C632.151 1054.5 626.555 1052.64 621.063 1050.5C565.646 1028.91 553.2 990.937 489.694 984.974C483.001 984.336 476.274 984.145 469.556 984.403C446.982 985.199 423.646 990.834 386.69 999.96C325.465 1015.17 283.651 1034 264.897 1041.45C251.16 1046.85 236.994 1051.1 222.547 1054.13C172.558 1064.78 101.895 1065.89 2.48664 1038.71M1722.42 1010.14C1616.63 1003.23 1532.71 979.027 1470.92 950.714C1421.85 928.243 1384.82 902.574 1336.96 884.251C1326.03 880.051 1314.71 875.799 1302.56 872.151C1226.92 849.387 1177.15 846.638 1155.17 847.952C1126.83 849.68 1124.95 849.352 1081.77 862.575C1051.54 871.858 1029.47 878.132 1012.63 882.54C984.265 889.921 970.626 891.408 949.089 903.594C940.882 908.287 933.168 913.794 926.065 920.032C893.119 948.45 891.494 982.536 834.849 1017.52C785.05 1048.31 705.503 1070.17 635.064 1050.52C629.101 1048.79 623.587 1047.06 618.419 1044.99C561.256 1023 548.603 986.789 487.429 981.033C480.79 980.379 474.115 980.165 467.448 980.393C444.492 981.067 421.192 986.547 385.134 995.587C325.914 1010.38 284.792 1028.9 264.275 1036.88C250.648 1042.24 236.613 1046.49 222.306 1049.6C172.766 1060.49 102.431 1062.79 4.00792 1038.32M1723.16 1027.86C1621.09 1022.28 1535.17 1000.93 1468.64 971.578C1416.95 948.761 1378.23 921.916 1331.3 902.695C1320.1 898.097 1308.68 893.292 1296.51 889.161C1221.47 863.682 1172.05 858.341 1148.87 855.437C1120.2 851.858 1116.45 852.464 1074.22 865.272C1044.83 874.209 1022.85 881.296 1006.25 886.516C978.716 895.159 966.011 897.751 945.96 910.37C938.2 915.42 930.88 921.116 924.077 927.396C892.289 955.606 887.484 987.497 830.908 1019.01C780.487 1047.11 701.544 1065.56 632.351 1046.03C626.439 1044.3 620.96 1042.57 615.826 1040.55C556.952 1018.08 544.039 983.695 485.234 977.973C478.642 977.303 472.014 977.067 465.391 977.264C442.055 977.8 418.72 983.159 383.613 992.026C326.433 1006.39 285.968 1024.57 263.704 1033.23C250.16 1038.51 236.241 1042.77 222.064 1045.97C172.973 1057.11 102.967 1060.61 5.54644 1038.82M1723.93 1045.61C1625.55 1041.32 1537.66 1022.86 1466.37 992.458C1412.06 969.278 1371.67 941.241 1325.63 921.156C1314.17 916.16 1302.66 910.784 1290.44 906.186C1216.01 878.046 1167.04 868.47 1142.56 862.973C1113.65 856.474 1107.99 855.627 1066.65 868.02C1038.04 876.663 1016.24 884.511 999.925 890.491C973.219 900.379 961.465 904.112 942.884 917.145C935.585 922.542 928.655 928.42 922.141 934.742C891.494 962.71 883.508 992.424 826.985 1020.56C775.941 1045.97 697.621 1061.01 629.654 1041.62C623.812 1039.89 618.367 1038.16 613.25 1036.17C552.648 1013.24 539.511 980.86 483.057 975.069C476.51 974.408 469.929 974.148 463.351 974.291C439.67 974.706 416.404 979.926 382.11 988.621C326.935 1002.59 287.143 1020.46 263.134 1029.74C249.687 1034.97 235.888 1039.24 221.839 1042.52C173.181 1053.91 103.503 1058.59 7.06771 1039.51M1724.65 1057.05C1629.98 1054.06 1540.1 1038.51 1464.07 1007.05C1407.15 983.487 1365.06 954.205 1319.93 933.325C1308.23 927.914 1296.6 922.037 1284.34 916.921C1210.55 886.118 1161.98 872.393 1136.27 864.183C1107.1 854.883 1099.44 852.446 1059.09 864.442C1036.81 871.091 1014.94 879.044 993.599 888.261C967.671 899.376 956.902 904.285 939.841 917.647C932.391 923.506 926.48 929.747 920.084 935.814C890.578 963.47 879.394 991.127 822.974 1015.81C771.256 1038.51 693.593 1050.16 626.871 1030.9C621.081 1029.17 615.67 1027.44 610.588 1025.49C548.24 1002.14 534.878 971.474 480.775 965.856C474.28 965.193 467.752 964.916 461.225 965.026C437.164 965.355 413.932 970.385 380.571 978.854C327.419 992.372 288.284 1009.97 262.546 1019.87C249.184 1025.04 235.493 1029.31 221.563 1032.66C173.354 1044.31 104.022 1050.21 8.57157 1033.8M1725.45 1065.21C1634.49 1063.48 1542.62 1050.81 1461.84 1018.33C1402.31 994.394 1358.56 963.834 1314.3 942.279C1302.33 936.436 1290.61 930.041 1278.31 924.44C1205.07 891.027 1156.88 873.171 1129.96 862.212C1100.58 850.199 1090.93 846.085 1051.52 857.666C1029.44 864.157 1007.95 872.518 987.29 882.661C962.208 894.968 952.356 901.087 936.781 914.916C929.867 921.018 924.422 927.517 918.079 933.653C889.696 961.137 875.297 986.408 819.016 1007.83C766.589 1027.77 689.6 1036.07 624.123 1016.93C618.401 1015.21 613.043 1013.48 607.961 1011.56C543.866 987.843 530.228 958.942 478.545 953.531C472.097 952.851 465.616 952.551 459.133 952.633C434.726 952.84 411.494 957.715 379.05 966.081C327.919 979.2 289.459 996.468 261.958 1007.03C248.689 1012.13 235.117 1016.41 221.32 1019.84C173.543 1031.75 104.54 1038.85 10.075 1025.11M1726.19 1073.49C1638.95 1073.09 1545.12 1063.24 1459.56 1029.74C1397.44 1005.41 1352.05 973.531 1308.64 951.198C1296.42 944.889 1284.58 937.975 1272.24 931.925C1199.59 895.936 1151.74 874.018 1123.67 860.19C1093.89 845.532 1082.43 839.69 1043.97 850.856C1022.05 857.278 1000.91 866.138 980.963 877.268C956.763 890.733 947.81 898.132 933.705 912.306C927.378 918.667 922.365 925.374 916.091 931.631C888.814 958.821 871.149 981.845 815.04 999.96C761.888 1017.12 685.624 1022.09 621.443 1003.11C615.774 1001.38 610.45 999.649 605.403 997.748C539.562 973.548 525.769 946.462 476.367 941.086C469.971 940.405 463.543 940.082 457.111 940.118C432.324 940.118 409.127 944.923 377.598 953.151C328.473 965.821 290.704 982.813 261.44 993.979C248.262 999.039 234.803 1003.33 221.13 1006.84C173.803 1018.94 105.128 1027.25 11.6653 1016.24M1726.95 1081.81C1643.41 1082.71 1547.61 1075.71 1457.3 1041.19C1392.56 1016.45 1345.53 983.245 1302.97 960.238C1290.53 953.514 1278.55 946.133 1266.19 939.496C1194.11 900.932 1146.58 874.952 1117.36 858.254C1087.22 840.969 1073.92 833.363 1036.4 844.115C1014.64 850.463 993.861 859.769 974.637 871.771C951.181 886.412 943.281 895.09 930.645 909.609C924.889 916.247 920.274 923.127 914.086 929.505C887.916 956.418 867.018 977.144 811.082 992.009C757.169 1006.34 681.649 1008.03 618.661 989.174C613.043 987.446 607.754 985.717 602.741 983.868C535.137 959.305 521.154 933.947 474.085 928.675C467.735 927.993 461.354 927.647 454.968 927.638C429.817 927.482 406.568 932.184 375.991 940.239C328.905 952.495 291.793 969.192 260.783 980.981C247.702 986.006 234.362 990.328 220.819 993.928C173.924 1006.34 105.577 1015.79 13.1002 1007.48M1727.71 1090.09C1647.87 1092.23 1550.07 1088.06 1455 1052.54C1387.59 1027.39 1339.01 992.838 1297.27 969.192C1284.58 962.001 1272.48 954.154 1260.09 947.032C1188.6 905.944 1141.35 875.92 1111.02 856.266C1080.44 836.44 1065.37 827.002 1028.79 837.339C1007.19 843.665 986.754 853.461 968.293 866.343C945.649 882.108 938.735 892.133 927.568 906.982C922.383 913.896 918.217 920.931 912.011 927.448C886.913 954.067 862.748 972.39 807.02 984.109C752.346 995.569 677.586 994.031 615.825 975.311C610.277 973.582 605.022 971.854 600.027 970.125C530.677 945.182 516.486 921.553 471.786 916.419C465.473 915.701 459.125 915.332 452.772 915.313C427.259 915.14 404.096 919.583 374.348 927.413C329.285 939.253 292.847 955.657 260.074 968.068C248.234 972.563 235.114 977.005 220.439 980.981C173.993 993.633 105.974 1004.3 14.5 998.664M1728.47 1098.12C1652.42 1101.58 1552.63 1100.27 1452.77 1063.76C1382.83 1038.2 1332.58 1002.26 1291.63 977.99C1278.72 970.333 1266.48 962.036 1254.06 954.396C1183.08 910.785 1136.1 876.732 1104.76 854.14C1073.75 831.669 1056.92 820.503 1021.27 830.425C999.794 836.735 979.686 847.006 961.984 860.709C940.117 877.614 934.327 889.005 924.526 904.147C919.911 911.338 916.16 918.546 910.093 925.183C886.066 951.475 858.651 967.498 803.148 976.003C747.644 984.507 673.697 979.805 613.181 961.224C607.684 959.495 602.464 957.767 597.503 956.038C526.391 930.715 511.992 908.814 469.591 903.801C463.342 903.071 457.058 902.685 450.767 902.643C424.839 902.315 401.745 906.636 372.983 914.363C329.925 925.771 294.178 941.898 259.642 954.914C247.853 959.374 234.837 963.799 220.335 967.861C174.338 980.756 106.649 992.614 16.1593 989.693M1729.21 1106.06C1656.81 1110.85 1555.13 1112.32 1450.49 1074.84C1377.89 1048.91 1326.14 1011.51 1285.98 986.685C1272.83 978.543 1260.45 969.814 1247.95 961.655C1177.53 915.503 1130.79 877.475 1098.47 851.841C1066.96 826.915 1048.34 813.813 1013.77 823.337C990.816 829.664 969.969 842.749 955.709 854.901C934.603 872.912 929.781 885.703 921.501 901.139C917.491 908.606 914.138 915.987 908.157 922.763C885.184 948.691 854.572 962.33 799.259 967.705C743.029 973.219 669.791 965.406 610.519 946.963C605.091 945.234 599.906 943.506 594.962 941.777C522.104 916.056 507.515 895.884 467.499 891.01C461.297 890.269 455.06 889.859 448.814 889.783C422.557 889.281 399.464 893.499 371.513 901.07C330.478 912.063 295.457 927.897 259.158 941.535C247.421 945.943 234.509 950.385 220.197 954.499C174.632 967.653 107.271 980.704 17.7843 980.427M1729.98 1113.89C1661.27 1119.99 1557.71 1124.05 1448.22 1085.8C1373.15 1059.25 1319.71 1020.63 1280.31 995.207C1266.95 986.564 1254.38 977.42 1241.92 968.743C1171.98 920.153 1125.47 878.011 1092.16 849.473C1060.13 822.024 1039.92 807.089 1006.15 816.181C984.005 822.197 963.263 835.973 949.331 849.024C928.986 868.142 925.321 882.316 918.39 898.063C914.933 905.807 912.012 913.326 906.1 920.24C884.182 945.891 850.32 957.023 795.214 959.426C738.172 961.898 665.729 951.025 607.702 932.703C602.32 930.986 597.175 929.257 592.266 927.517C517.627 901.451 502.848 882.972 465.183 878.236C459.034 877.475 452.849 877.043 446.653 876.94C420.034 876.3 396.94 880.397 369.889 887.795C330.893 898.356 296.512 913.982 258.432 928.174C246.747 932.564 233.956 936.972 219.799 941.155C174.684 954.569 107.651 968.812 19.15 971.266M1730.74 1121.6C1665.74 1128.98 1560.2 1135.89 1445.96 1096.64C1368.28 1069.69 1313.26 1029.59 1274.64 1003.66C1261.07 994.55 1248.37 984.956 1235.85 975.76C1166.42 924.699 1120.04 878.512 1085.87 846.966C1053.29 816.976 1031.42 800.14 998.664 808.835C977.316 814.522 956.66 829.007 943.091 842.991C923.472 863.215 920.966 878.806 915.434 894.847C912.634 902.885 910.024 910.56 904.216 917.595C883.214 942.901 846.12 953.272 791.238 950.938C733.54 948.484 661.736 936.436 604.936 918.252C599.612 916.535 594.507 914.806 589.621 913.066C513.185 886.758 498.25 869.852 462.936 865.254C456.833 864.487 450.694 864.037 444.545 863.906C417.562 863.146 394.417 867.087 368.35 874.277C331.446 884.51 297.67 899.946 257.845 914.656C246.212 919.012 233.524 923.42 219.557 927.672C174.875 941.345 108.17 956.781 20.6713 961.932M1731.57 1129.22C1670.27 1137.86 1562.76 1147.66 1443.76 1107.39C1363.47 1080.04 1306.98 1038.47 1269.06 1011.96C1255.23 1002.35 1242.39 992.354 1229.87 982.571C1160.9 928.986 1114.79 878.858 1079.63 844.287C1046.42 811.791 1022.86 793.157 991.023 801.419C970.488 806.778 949.918 821.955 936.695 836.872C917.802 858.168 916.506 875.176 912.271 891.494C910.093 899.826 907.829 907.639 902.107 914.829C882.229 939.789 842.057 945.943 787.28 942.348C728.821 938.562 657.778 921.743 602.222 903.697C597.037 901.969 591.851 900.24 587.028 898.512C508.846 871.806 493.687 856.612 460.724 852.17C454.673 851.382 448.587 850.908 442.487 850.752C415.142 849.853 392.083 853.673 366.846 860.726C331.878 870.458 298.846 885.513 257.274 900.932C245.676 905.253 233.075 909.575 219.246 913.982C175.013 927.811 108.619 944.526 22.1923 952.373M1732.24 1136.76C1674.66 1146.73 1565.19 1159.35 1441.41 1118.07C1358.44 1090.33 1300.54 1047.2 1263.37 1020.22C1249.41 1010.09 1236.3 999.718 1223.79 989.451C1155.18 933.584 1109.36 879.17 1073.41 841.626C1039.66 806.519 1014.55 786.088 983.521 793.97C963.799 799 943.281 814.868 930.42 830.701C912.236 853.172 912.184 871.495 909.246 888.124C907.742 896.766 905.789 904.7 900.171 912.029C881.295 936.644 837.943 940.17 783.373 933.723C724.205 926.808 653.836 907.017 599.543 889.091C594.357 887.363 589.292 885.634 584.47 884.044C504.525 856.941 489.192 843.406 458.563 839.102C452.518 838.325 446.437 837.864 440.344 837.719C414.986 836.764 389.643 839.976 365.325 847.226C332.379 856.543 300.021 871.305 256.686 887.346C245.14 891.615 232.659 895.988 219.056 900.413C155.458 920.764 90.0655 935.009 23.7651 942.953M1733 1144.24C1679.12 1155.51 1567.68 1170.98 1439.15 1128.68C1353.64 1100.54 1294.19 1055.96 1257.65 1028.43C1095.46 906.1 1044.12 769.476 975.898 786.433C956.988 791.135 936.522 807.694 924.042 824.461C897.388 860.242 914.189 887.38 898.114 909.16C858.703 962.572 681.424 902.92 581.791 869.403C484.646 836.716 481.051 826.189 438.321 824.461C363.735 821.401 324.964 851.357 218.797 886.689C155.672 907.595 90.9161 923.206 25.1997 933.359M1733 1149.19C1677.69 1161.51 1569.7 1175.63 1446.82 1135.15C1362 1107.13 1305.08 1062.12 1265.86 1033.17C1109.19 917.647 1060.32 792.535 990.816 803.701C963.66 808.057 936.09 816.786 917.889 830.165C882.125 856.473 895.418 879.999 874.675 901.035C829.266 947.118 663.914 895.383 569.051 864.632C476.643 834.573 472.91 826.068 427.743 827.797C352.69 830.666 315.681 857.182 215.668 891.096C153.269 912.244 89.0181 927.47 23.7651 936.574M1733 1154.34C1640.75 1175.57 1544.46 1171.24 1454.5 1141.8C1370.37 1113.92 1316.08 1068.45 1274.07 1038.09C1123.12 929.09 1075.86 813.623 1005.72 821.159C970.125 824.997 936.661 825.965 911.735 836.077C868.971 853.362 877.302 872.549 851.236 893.119C801.437 932.374 646.404 888.037 556.295 860.052C468.778 832.62 464.889 825.965 417.147 831.323C341.817 839.759 306.399 863.371 212.539 895.712C150.884 917.086 87.1546 931.929 22.3996 939.997M1733 1163.5C1643.44 1184.99 1549.67 1181.17 1462.15 1152.47C1378.74 1124.71 1327.05 1078.76 1282.28 1047.03C1137.36 944.318 1090.9 850.7 1020.63 842.628C976.676 837.581 937.801 839.655 905.564 845.981C856.854 855.523 859.689 869.127 827.78 889.195C774.955 922.418 628.859 884.874 543.555 859.481C460.793 834.85 456.938 829.716 406.568 838.842C330.996 852.533 297.134 873.534 209.393 904.32C148.474 925.947 85.2452 940.414 20.9823 947.43M1733 1177.45C1646.13 1199.18 1554.89 1195.86 1469.83 1167.87C1387.1 1140.21 1338.05 1093.8 1290.49 1060.7C1151.71 964.093 1105.73 879.411 1035.53 868.833C983.383 860.985 937.335 848.989 899.41 860.622C847.226 876.629 845.273 877.735 804.341 890.007C755.094 927.361 611.332 886.395 530.799 863.647C452.841 841.695 449.004 838.065 395.972 851.115C320.21 869.766 287.887 888.504 206.265 917.664C146.078 939.537 83.342 953.623 19.5822 959.581M1733 1191.72C1648.83 1213.71 1560.1 1210.94 1477.47 1183.74C1395.43 1156.22 1349.02 1109.29 1298.67 1074.84C1166.16 984.161 1120.7 907.639 1050.52 895.504C990.021 885.064 939.685 868.504 893.222 875.747C833.311 885.081 828.004 881.417 780.867 891.304C729.201 924.544 593.821 888.244 518.128 868.28C444.976 849.007 441.139 846.708 385.463 863.855C309.407 887.225 278.725 903.974 203.205 931.475C143.75 953.595 81.4978 967.302 18.2511 972.2M1733 1206.28C1651.55 1228.48 1565.36 1226.23 1485.18 1199.8C1403.83 1172.4 1360.1 1124.95 1306.91 1089.17C1180.73 1004.28 1135.79 935.503 1065.35 922.366C996.676 909.557 941.138 899.048 887.103 891.044C820.382 881.157 810.805 885.254 757.463 892.773C703.29 922.003 576.311 890.353 505.303 873.102C436.956 856.508 433.119 855.436 374.798 876.784C298.604 904.683 269.443 919.704 200.077 945.494C141.349 967.852 79.5726 981.18 16.8511 985.026M1733 1221.02C1668.65 1239.64 1581.75 1245.91 1492.84 1216.06C1412.13 1188.96 1371.15 1140.78 1315.12 1103.71C1195.39 1024.47 1150.91 963.177 1080.27 949.435C1003.24 934.466 941.985 919.825 880.932 906.55C807.815 890.63 791.912 879.515 734.006 894.45C674.009 909.92 558.801 892.721 492.563 878.132C429.022 864.2 425.15 864.304 364.219 889.904C287.645 922.176 260.23 935.676 196.862 959.702C157.468 974.637 98.0407 994.17 15.3645 998.042M1733 1236.03C1667.14 1255.66 1583.78 1260.62 1500.51 1232.57C1420.5 1205.6 1382.23 1156.81 1323.34 1118.49C1210.13 1044.8 1166.3 990.816 1095.17 976.746C1009.78 959.84 942.676 940.947 874.779 922.296C795.076 900.396 775.18 883.733 710.567 896.368C648.979 908.468 541.308 895.193 479.807 883.404C421.036 872.134 417.026 873.171 353.623 903.282C276.668 939.807 251.051 951.958 193.733 974.153C154.91 989.191 96.3641 1008.72 13.9644 1011.32M1733 1251.2C1665.59 1271.95 1585.8 1275.51 1508.19 1249.27C1428.86 1222.44 1393.34 1173 1331.55 1133.46C1224.93 1065.21 1181.68 1018.47 1110.09 1004.25C1016.24 985.596 943.281 962.312 868.625 938.234C782.198 910.37 758.43 888.538 687.128 898.477C623.863 907.293 523.815 897.941 467.067 888.867C413.171 880.224 408.902 882.212 343.044 916.852C265.606 957.559 241.89 968.483 190.604 988.794C152.334 1003.95 94.7045 1023.55 12.5642 1024.76M1733 1266.61C1664.15 1288.33 1587.8 1290.6 1515.86 1266.17C1437.23 1239.47 1404.49 1189.34 1339.76 1148.63C1239.8 1085.75 1198.31 1037.82 1124.99 1031.96C1021.03 1023.64 943.834 983.902 862.471 954.378C769.251 920.568 738.016 876.594 663.689 900.793C601.6 921.069 506.392 900.793 454.311 894.536C405.255 888.573 400.726 891.39 332.448 930.611C254.474 975.432 232.763 985.285 187.475 1003.64C149.776 1018.94 93.0279 1038.56 11.1641 1038.44M1733 1282.51C1662.65 1305.29 1589.82 1306.15 1523.52 1283.68C1445.6 1257.1 1415.67 1206.21 1347.97 1164.41C1254.63 1106.8 1213.71 1067.32 1139.9 1060.27C1027.55 1049.5 944.318 1006.11 856.301 971.128C756.218 931.372 722.563 884.511 640.233 903.715C574.928 918.961 488.847 904.372 441.571 900.811C397.338 897.475 392.411 901.105 321.87 944.992C243.273 993.876 223.637 1002.74 184.329 1019.1C147.218 1034.55 91.3512 1054.15 9.74665 1052.7M1733 1299.41C1661.16 1323.25 1591.86 1322.78 1531.19 1302.01C1453.96 1275.54 1426.91 1223.82 1356.18 1181.01C1269.65 1128.62 1229.13 1097.64 1154.8 1089.4C1034.01 1076 944.767 1029.16 850.147 988.707C743.116 942.953 706.678 894.19 616.794 907.466C548.447 917.56 471.389 908.676 428.815 907.898C389.438 907.172 384.063 911.597 311.274 960.186C232.02 1013.1 214.475 1021.08 181.201 1035.38C144.677 1051.04 89.5881 1070.57 8.34654 1067.79M1733 1316.61C1659.66 1341.5 1593.89 1339.67 1538.87 1320.73C1462.33 1294.37 1438.2 1241.71 1364.39 1198C1284.62 1150.74 1244.6 1128.32 1169.72 1118.92C1040.56 1102.7 945.182 1052.58 843.993 1006.67C729.91 954.932 690.395 904.977 593.355 911.597C522.139 916.454 453.913 913.326 416.075 915.383C381.574 917.232 375.662 922.418 300.695 975.778C220.681 1032.7 205.487 1039.96 178.072 1052.06C142.17 1067.98 88.0151 1087.41 6.94642 1083.28M1733 1335.33C1658.15 1361.26 1595.96 1357.98 1546.54 1340.95C1470.75 1314.54 1449.57 1260.97 1372.6 1216.49C1299.62 1174.32 1260.09 1160.49 1184.62 1149.95C1047.17 1130.74 945.563 1077.52 837.909 1026.13C716.911 968.414 673.369 925.114 569.985 917.232C496.314 911.632 436.524 919.479 403.388 924.371C373.709 928.761 367.261 934.742 290.168 992.856C209.376 1053.8 196.516 1060.27 175.013 1070.21C139.785 1086.51 86.4077 1105.71 5.61565 1100.25M1733 1353.86C1656.67 1380.85 1597.98 1376.21 1554.2 1361C1479.11 1334.71 1461.05 1279.86 1380.81 1234.82C1314.64 1197.67 1275.61 1192.47 1199.54 1180.8C1053.8 1158.45 945.926 1102.27 831.669 1045.44C703.601 981.707 655.962 934.811 546.459 922.712C470.403 914.345 418.945 925.356 390.579 933.187C365.706 940.101 358.67 946.842 279.52 1009.78C197.864 1074.7 187.458 1080.53 171.798 1088.22C137.365 1105.12 84.6617 1123.85 4.12889 1117.05M1733 1372.41C1655.22 1400.43 1599.9 1394.47 1561.87 1381.05C1487.55 1354.88 1472.65 1298.48 1389.02 1253.14C1329.66 1220.95 1291.15 1224.45 1214.44 1211.65C1060.51 1185.99 946.271 1126.96 825.515 1064.73C690.378 994.999 638.504 944.439 523.02 928.174C444.285 917.094 401.383 931.147 377.823 942.002C357.72 951.267 350.166 958.924 268.924 1026.7C186.387 1095.62 178.522 1100.86 168.669 1106.21C135.36 1124.35 83.0024 1141.99 2.72889 1133.87M13.0998 194.301C126.302 184.829 206.195 154.7 258.553 128.617C311.498 102.239 349.63 73.3032 419.307 57.7463C496.158 40.4609 546.373 48.2048 566.234 52.5607C593.769 58.6106 592.058 62.7246 637.104 76.7603C723.635 103.726 740.073 91.7295 778.844 109.603C843.129 139.23 823.959 184.189 891.2 234.058C939.893 270.184 1020.51 298.93 1093.44 279C1162.11 260.228 1169.84 213.091 1242.09 206.401C1271.77 203.653 1296.46 209.755 1345.81 221.958C1409.05 237.515 1451.52 256.702 1468.53 263.443C1518.92 283.442 1600.25 296.026 1733 256.529M12.3391 209.547C121.842 201.371 203.706 174.095 260.817 147.061C307.211 124.797 342.595 100.39 391.357 82.9488C402.022 79.146 413.257 75.4642 425.357 72.2837C501.603 52.2672 551.627 55.5687 572.508 57.5911C600.51 60.2876 600.51 63.3644 644.657 77.0026C675.771 86.5961 697.931 92.0755 715.096 95.6709C744.273 101.773 758.879 102.188 781.904 113.924C790.495 118.268 798.557 123.586 805.93 129.775C840.035 158.383 838.583 194.647 895.158 233.09C944.404 266.555 1024.49 291.861 1096.17 272.069C1101.85 270.497 1107.45 268.64 1112.94 266.503C1168.35 244.913 1180.8 206.937 1244.31 200.974C1251 200.336 1257.73 200.145 1264.44 200.403C1287.02 201.199 1310.35 206.834 1347.31 215.96C1408.54 231.172 1450.35 249.995 1469.1 257.445C1482.84 262.851 1497.01 267.096 1511.45 270.133C1561.44 280.781 1632.1 281.887 1731.51 254.714M11.5784 226.141C117.365 219.227 201.286 195.027 263.081 166.714C312.155 144.243 349.18 118.574 397.043 100.251C407.968 96.051 419.29 91.7987 431.441 88.1515C507.083 65.3866 556.847 62.6382 578.834 63.9519C607.165 65.6804 609.049 65.352 652.228 78.5754C682.46 87.8577 704.534 94.1323 721.37 98.5401C749.735 105.921 763.374 107.408 784.911 119.594C793.118 124.287 800.832 129.794 807.935 136.032C840.881 164.449 842.506 198.536 899.151 233.522C948.95 264.308 1028.5 286.174 1098.94 266.52C1104.9 264.792 1110.41 263.063 1115.58 260.989C1172.74 239.002 1185.4 202.789 1246.57 197.033C1253.21 196.379 1259.89 196.165 1266.55 196.393C1289.51 197.067 1312.81 202.547 1348.87 211.587C1408.09 226.383 1449.21 244.896 1469.73 252.882C1483.35 258.239 1497.39 262.493 1511.69 265.604C1561.23 276.494 1631.57 278.793 1729.99 254.317M10.835 243.859C112.905 238.276 198.831 216.928 265.363 187.578C317.046 164.761 355.766 137.916 402.696 118.695C413.897 114.097 425.322 109.292 437.491 105.161C512.527 79.6818 561.946 74.3406 585.126 71.4366C613.803 67.8585 617.554 68.4635 659.782 81.272C689.167 90.2086 711.154 97.2956 727.748 102.516C755.284 111.159 767.989 113.751 788.04 126.37C795.8 131.42 803.12 137.116 809.923 143.396C841.711 171.606 846.516 203.497 903.092 235.009C953.513 263.115 1032.46 281.558 1101.65 262.026C1107.56 260.297 1113.04 258.569 1118.17 256.546C1177.05 234.075 1189.96 199.695 1248.77 193.973C1255.36 193.303 1261.99 193.067 1268.61 193.264C1291.94 193.8 1315.28 199.159 1350.39 208.026C1407.57 222.39 1448.03 240.575 1470.3 249.235C1483.84 254.511 1497.76 258.769 1511.94 261.974C1561.03 273.106 1631.03 276.615 1728.45 254.818M10.0743 261.611C108.446 257.324 196.342 238.863 267.627 208.458C321.938 185.278 362.334 157.241 408.365 137.156C419.825 132.16 431.338 126.784 443.558 122.186C517.989 94.0457 566.959 84.4696 591.435 78.9728C620.354 72.4735 626.006 71.6265 667.353 84.0202C695.96 92.6629 717.757 100.511 734.074 106.491C760.78 116.379 772.535 120.112 791.116 133.145C798.415 138.542 805.345 144.42 811.859 150.742C842.506 178.71 850.492 208.424 907.015 236.564C958.059 261.974 1036.38 277.012 1104.35 257.618C1110.19 255.889 1115.63 254.161 1120.75 252.173C1181.35 229.235 1194.49 196.86 1250.94 191.069C1257.49 190.408 1264.07 190.148 1270.65 190.291C1294.33 190.706 1317.6 195.926 1351.89 204.621C1407.07 218.587 1446.86 236.461 1470.87 245.743C1484.31 250.967 1498.11 255.236 1512.16 258.517C1560.82 269.908 1630.5 274.592 1726.93 255.509M9.34834 273.054C104.021 270.063 193.905 254.507 269.926 223.047C326.847 199.487 368.937 170.205 414.069 149.325C425.772 143.914 437.405 138.037 449.66 132.921C523.452 102.118 572.024 88.3934 597.727 80.1828C626.905 70.8833 634.562 68.446 674.906 80.4421C697.186 87.0908 719.055 95.0443 740.401 104.261C766.329 115.376 777.098 120.285 794.159 133.647C801.609 139.506 807.52 145.747 813.916 151.814C843.422 179.47 854.606 207.127 911.026 231.811C962.744 254.507 1040.41 266.157 1107.13 246.901C1112.92 245.172 1118.33 243.444 1123.41 241.491C1185.76 218.138 1199.12 187.474 1253.23 181.856C1259.72 181.193 1266.25 180.916 1272.77 181.026C1296.84 181.355 1320.07 186.385 1353.43 194.854C1406.58 208.372 1445.72 225.968 1471.45 235.873C1484.82 241.042 1498.51 245.315 1512.44 248.664C1560.65 260.314 1629.98 266.209 1725.43 249.805M8.55353 281.213C99.5095 279.484 191.382 266.814 272.156 234.335C331.687 210.394 375.437 179.834 419.705 158.279C431.666 152.436 443.386 146.041 455.693 140.44C528.931 107.027 577.123 89.1714 604.037 78.2124C633.422 66.199 643.067 62.0851 682.478 73.6664C704.56 80.1566 726.049 88.5185 746.71 98.6611C771.792 110.968 781.644 117.087 797.219 130.916C804.133 137.018 809.578 143.517 815.921 149.653C844.304 177.137 858.703 202.408 914.984 223.825C967.411 243.772 1044.4 252.069 1109.88 232.934C1115.6 231.206 1120.96 229.477 1126.04 227.559C1190.13 203.843 1203.77 174.942 1255.46 169.531C1261.9 168.851 1268.38 168.551 1274.87 168.633C1299.27 168.84 1322.51 173.715 1354.95 182.081C1406.08 195.2 1444.54 212.468 1472.04 223.03C1485.31 228.133 1498.88 232.411 1512.68 235.838C1560.46 247.748 1629.46 254.852 1723.92 241.11M7.81018 289.493C95.0497 289.095 188.875 279.242 274.438 245.743C336.562 221.405 381.953 189.531 425.357 167.198C437.578 160.889 449.418 153.975 461.76 147.925C534.411 111.936 582.257 90.0185 610.328 76.1901C640.111 61.5321 651.571 55.6896 690.032 66.856C711.954 73.2782 733.088 82.1376 753.037 93.2681C777.237 106.734 786.19 114.132 800.295 128.306C806.622 134.667 811.635 141.374 817.909 147.631C845.186 174.821 862.851 197.845 918.96 215.96C972.112 233.125 1048.38 238.086 1112.56 219.106C1118.23 217.378 1123.55 215.649 1128.6 213.748C1194.44 189.548 1208.23 162.462 1257.63 157.086C1264.03 156.405 1270.46 156.082 1276.89 156.118C1301.68 156.118 1324.87 160.923 1356.4 169.151C1405.53 181.821 1443.3 198.813 1472.56 209.979C1485.74 215.039 1499.2 219.333 1512.87 222.84C1560.2 234.94 1628.87 243.254 1722.33 232.243M7.04947 297.807C90.59 298.706 186.386 291.705 276.702 257.186C341.436 232.451 388.47 199.245 431.026 176.238C443.472 169.514 455.451 162.133 467.81 155.496C539.89 116.932 587.425 90.952 616.637 74.2543C646.783 56.9688 660.076 49.3632 697.602 60.1148C719.358 66.4628 740.139 75.7687 759.363 87.7715C782.819 102.412 790.719 111.09 803.355 125.609C809.111 132.247 813.726 139.127 819.914 145.505C846.084 172.418 866.982 193.144 922.918 208.009C976.831 222.339 1052.35 224.033 1115.34 205.174C1120.96 203.446 1126.25 201.717 1131.26 199.868C1198.86 175.305 1212.85 149.947 1259.91 144.675C1266.26 143.993 1272.65 143.647 1279.03 143.638C1304.18 143.482 1327.43 148.184 1358.01 156.239C1405.1 168.495 1442.21 185.192 1473.22 196.981C1486.3 202.006 1499.64 206.328 1513.18 209.928C1560.08 222.339 1628.42 231.794 1720.9 223.48M6.28939 306.086C86.1308 308.23 183.932 304.064 279.002 268.542C346.415 243.392 394.987 208.838 436.731 185.192C449.419 178.001 461.518 170.154 473.912 163.032C545.405 121.944 592.646 91.9196 622.982 72.266C653.559 52.4396 668.632 43.0018 705.208 53.3385C726.813 59.6646 747.246 69.4607 765.707 82.3435C788.351 98.1078 795.265 108.133 806.432 122.982C811.617 129.896 815.783 136.931 821.989 143.448C847.087 170.067 871.252 188.39 926.98 200.109C981.654 211.569 1056.41 210.031 1118.17 191.311C1123.72 189.582 1128.98 187.854 1133.97 186.125C1203.32 161.182 1217.51 137.553 1262.21 132.419C1268.53 131.701 1274.87 131.332 1281.23 131.313C1306.74 131.14 1329.9 135.583 1359.65 143.413C1404.72 155.253 1441.15 171.657 1473.93 184.068C1485.77 188.563 1498.89 193.005 1513.56 196.981C1560.01 209.633 1628.03 220.299 1719.5 214.664M5.52868 314.124C81.5846 317.581 181.373 316.268 281.231 279.761C351.168 254.196 401.417 218.259 442.366 193.99C455.278 186.333 467.516 178.036 479.945 170.396C550.919 126.785 597.9 92.7323 629.239 70.1402C660.249 47.6692 677.085 36.5028 712.727 46.4246C734.206 52.7345 754.314 63.0058 772.016 76.7087C793.883 93.6139 799.673 105.005 809.474 120.147C814.089 127.338 817.84 134.546 823.907 141.183C847.934 167.475 875.349 183.498 930.852 192.003C986.356 200.507 1060.3 195.805 1120.82 177.224C1126.32 175.495 1131.54 173.766 1136.5 172.038C1207.61 146.715 1222.01 124.814 1264.41 119.801C1270.66 119.071 1276.94 118.685 1283.23 118.643C1309.16 118.315 1332.25 122.636 1361.02 130.363C1404.08 141.771 1439.82 157.898 1474.36 170.914C1486.15 175.374 1499.16 179.799 1513.67 183.861C1559.66 196.756 1627.35 208.614 1717.84 205.693M4.78532 322.058C77.194 326.846 178.867 328.315 283.513 290.841C356.112 264.912 407.864 227.507 448.018 202.685C461.173 194.543 473.549 185.814 486.046 177.655C556.467 131.503 603.207 93.4753 635.531 67.841C667.042 42.9154 685.658 29.813 720.229 39.3373C743.184 45.6638 764.031 58.7488 778.291 70.9005C799.397 88.9119 804.219 101.703 812.499 117.139C816.509 124.606 819.862 131.987 825.843 138.763C848.816 164.691 879.428 178.33 934.741 183.705C990.971 189.219 1064.21 181.406 1123.48 162.963C1128.91 161.234 1134.09 159.506 1139.04 157.777C1211.9 132.056 1226.48 111.884 1266.5 107.01C1272.7 106.269 1278.94 105.859 1285.19 105.783C1311.44 105.281 1334.54 109.499 1362.49 117.07C1403.52 128.063 1438.54 143.897 1474.84 157.535C1486.58 161.943 1499.49 166.385 1513.8 170.499C1559.37 183.653 1626.73 196.704 1716.22 196.427M4.02461 329.889C72.7342 335.99 176.291 340.053 285.777 301.8C360.848 275.249 414.294 236.634 453.688 211.207C467.049 202.564 479.616 193.42 492.079 184.743C562.016 136.153 608.531 94.0115 641.84 65.4732C673.87 38.0239 694.076 23.0893 727.852 32.1814C749.995 38.1968 770.737 51.9733 784.669 65.0238C805.014 84.1415 808.679 98.3155 815.61 114.063C819.067 121.806 821.988 129.326 827.9 136.24C849.818 161.891 883.68 173.023 938.786 175.426C995.828 177.898 1068.27 167.025 1126.3 148.703C1131.68 146.986 1136.83 145.257 1141.73 143.517C1216.37 117.451 1231.15 98.9724 1268.82 94.2362C1274.97 93.4753 1281.15 93.0425 1287.35 92.9398C1313.97 92.3002 1337.06 96.3969 1364.11 103.795C1403.11 114.356 1437.49 129.982 1475.57 144.174C1487.25 148.564 1500.04 152.972 1514.2 157.155C1559.32 170.569 1626.35 184.812 1714.85 187.266M3.2639 337.598C68.2571 344.979 173.802 351.893 288.041 312.637C365.722 285.689 420.742 245.587 459.357 219.659C472.926 210.55 485.631 200.956 498.146 191.76C567.581 140.699 613.958 94.5124 648.131 62.9665C680.714 32.9762 702.58 16.1402 735.336 24.8348C756.684 30.5217 777.34 45.0069 790.909 58.9908C810.528 79.2148 813.034 94.8063 818.566 110.847C821.366 118.885 823.976 126.56 829.784 133.595C850.786 158.901 887.88 169.272 942.762 166.938C1000.46 164.484 1072.26 152.436 1129.06 134.252C1134.39 132.535 1139.49 130.806 1144.38 129.066C1220.82 102.758 1235.75 85.8524 1271.06 81.2545C1277.17 80.4874 1283.31 80.0374 1289.46 79.9062C1316.44 79.1456 1339.58 83.0867 1365.65 90.2775C1402.55 100.51 1436.33 115.946 1476.16 130.656C1487.79 135.012 1500.48 139.42 1514.44 143.672C1559.13 157.345 1625.83 172.781 1713.33 177.932M2.43438 345.221C63.7285 353.863 171.244 363.664 290.237 323.389C370.528 296.044 427.016 254.472 464.941 227.956C478.769 218.345 491.612 208.355 504.127 198.571C573.096 144.986 619.213 94.8583 654.372 60.2874C687.577 27.7907 711.137 9.15702 742.977 17.4195C763.512 22.778 784.082 37.9546 797.305 52.8719C816.198 74.1676 817.494 91.1765 821.729 107.494C823.907 115.826 826.171 123.639 831.893 130.829C851.771 155.789 891.943 161.943 946.72 158.348C1005.18 154.562 1076.22 137.743 1131.78 119.697C1136.96 117.969 1142.15 116.24 1146.97 114.512C1225.15 87.8058 1240.31 72.6119 1273.28 68.1695C1279.33 67.3815 1285.41 66.9084 1291.51 66.7521C1318.86 65.8533 1341.92 69.6734 1367.15 76.7258C1402.12 86.4575 1435.15 101.513 1476.73 116.932C1488.32 121.253 1500.93 125.575 1514.75 129.982C1558.99 143.811 1625.38 160.526 1711.81 168.373M1.76047 352.757C59.3382 362.731 168.807 375.349 292.588 334.072C375.558 306.329 433.464 263.201 470.628 236.219C484.594 226.09 497.697 215.718 510.211 205.451C578.817 149.584 624.641 95.1697 660.595 57.6257C694.336 22.5189 719.451 2.08753 750.479 9.96969C770.201 14.9998 790.719 30.8678 803.58 46.7013C821.764 69.1723 821.816 87.4949 824.754 104.124C826.258 112.766 828.211 120.7 833.829 128.029C852.705 152.644 896.057 156.17 950.627 149.723C1009.79 142.808 1080.16 123.017 1134.46 105.092C1139.64 103.363 1144.71 101.634 1149.53 100.044C1229.48 72.9406 1244.81 59.4061 1275.44 55.102C1281.48 54.3252 1287.56 53.8637 1293.66 53.7192C1319.01 52.7642 1344.36 55.9758 1368.67 63.2262C1401.62 72.543 1433.98 87.3048 1477.31 103.346C1488.86 107.615 1501.34 111.988 1514.94 116.413C1578.54 136.765 1643.93 151.009 1710.23 158.953M0.999965 360.242C54.8786 371.512 166.318 386.982 294.852 344.685C380.363 316.544 439.808 271.965 476.349 244.429C638.538 122.1 689.876 -14.5241 758.102 2.43293C777.012 7.13457 797.478 23.694 809.958 40.4609C836.612 76.2418 819.811 103.38 835.886 125.16C875.297 178.572 1052.58 118.92 1152.21 85.4031C1249.35 52.7163 1252.95 42.1895 1295.68 40.4609C1370.27 37.4014 1409.04 67.3571 1515.2 102.689C1578.33 123.595 1643.08 139.206 1708.8 149.359M0.999756 365.185C56.3131 377.51 164.295 391.632 287.177 351.149C371.997 323.13 428.918 278.118 468.138 249.165C624.814 133.647 673.679 8.53458 743.184 19.701C770.34 24.0569 797.91 32.7861 816.111 46.165C851.875 72.4734 838.582 95.9989 859.325 117.035C904.734 163.118 1070.09 111.383 1164.95 80.6322C1257.36 50.5728 1261.09 42.0683 1306.26 43.7969C1381.31 46.6663 1418.32 73.1822 1518.33 107.096C1580.73 128.244 1644.98 143.47 1710.23 152.574M0.999756 370.336C93.2456 391.571 189.537 387.239 279.503 357.805C363.631 329.923 417.924 284.445 459.928 254.092C610.882 145.09 658.14 29.623 728.284 37.1595C763.875 40.9969 797.339 41.9648 822.265 52.0768C865.029 69.3623 856.698 88.5491 882.764 109.119C932.563 148.374 1087.6 104.037 1177.71 76.0517C1265.22 48.6197 1269.11 41.9648 1316.85 47.3233C1392.18 55.7586 1427.6 79.3706 1521.46 111.712C1583.12 133.086 1646.85 147.929 1711.6 155.997M0.999756 379.498C90.5595 400.987 184.329 397.169 271.845 368.47C355.265 340.709 406.948 294.764 451.717 263.028C596.638 160.318 643.102 66.7003 713.367 58.628C757.324 53.5806 796.199 55.6549 828.436 61.9814C877.146 71.5229 874.311 85.1266 906.22 105.195C959.045 138.418 1105.14 100.874 1190.44 75.4813C1273.21 50.8495 1277.06 45.7158 1327.43 54.8425C1403 68.5325 1436.87 89.5344 1524.61 120.32C1585.53 141.947 1648.75 156.414 1713.02 163.43M0.999756 393.447C87.8666 415.18 179.113 411.86 264.17 383.871C346.898 356.214 395.955 309.803 443.507 276.701C582.291 180.093 628.271 95.4115 698.467 84.8328C750.617 76.9852 796.665 64.9891 834.59 76.6222C886.774 92.6285 888.727 93.7348 929.659 106.007C978.906 143.361 1122.67 102.395 1203.2 79.6471C1281.16 57.6946 1285 54.0647 1338.03 67.1152C1413.79 85.7662 1446.11 104.504 1527.74 133.664C1587.92 155.537 1650.66 169.623 1714.42 175.581M0.999756 407.725C85.1696 429.715 173.898 426.942 256.53 399.739C338.567 372.221 384.978 325.291 435.331 290.841C567.841 200.161 613.302 123.639 683.48 111.504C743.979 101.064 794.315 84.5045 840.778 91.7471C900.689 101.081 905.996 97.4167 953.133 107.304C1004.8 140.544 1140.18 104.244 1215.87 84.2798C1289.02 65.0065 1292.86 62.7075 1348.54 79.8547C1424.59 103.225 1455.27 119.974 1530.79 147.475C1590.25 169.595 1652.5 183.302 1715.75 188.2M0.999756 422.279C82.4533 444.482 168.639 442.228 248.821 415.797C330.166 388.4 373.898 340.951 427.086 305.17C553.269 220.281 598.211 151.503 668.649 138.366C737.324 125.557 792.862 115.048 846.897 107.045C913.618 97.1572 923.195 101.254 976.537 108.773C1030.71 138.003 1157.69 106.353 1228.7 89.1022C1297.04 72.5082 1300.88 71.4365 1359.2 92.784C1435.4 120.683 1464.56 135.704 1533.92 161.494C1592.65 183.852 1654.43 197.18 1717.15 201.025M0.999756 437.024C65.3534 455.64 152.247 461.915 241.163 432.063C321.869 404.959 362.853 356.785 418.875 319.707C538.611 240.471 583.087 179.177 653.732 165.435C730.756 150.466 792.015 135.825 853.068 122.55C926.185 106.63 942.088 95.5152 999.994 110.45C1059.99 125.92 1175.2 108.721 1241.44 94.1324C1304.98 80.2003 1308.85 80.304 1369.78 105.904C1446.36 138.176 1473.77 151.676 1537.14 175.702C1576.53 190.637 1635.96 210.17 1718.64 214.042M0.999756 452.027C66.8572 471.664 150.225 476.624 233.489 448.57C313.503 421.605 351.773 372.808 410.664 334.486C523.867 260.798 567.702 206.816 638.832 192.746C724.222 175.84 791.324 156.947 859.221 138.296C938.924 116.396 958.82 99.7326 1023.43 112.368C1085.02 124.468 1192.69 111.193 1254.19 99.4042C1312.96 88.1341 1316.97 89.1712 1380.38 119.282C1457.33 155.807 1482.95 167.958 1540.27 190.153C1579.09 205.191 1637.64 224.724 1720.04 227.317M0.999756 467.204C68.4129 487.947 148.202 491.507 225.814 465.268C305.137 438.441 340.658 389.005 402.454 349.456C509.07 281.213 552.318 234.473 623.915 220.247C717.757 201.596 790.719 178.312 865.375 154.234C951.802 126.37 975.57 104.538 1046.87 114.477C1110.14 123.293 1210.18 113.941 1266.93 104.867C1320.83 96.2239 1325.1 98.2117 1390.96 132.852C1468.39 173.559 1492.11 184.483 1543.4 204.794C1581.67 219.953 1639.3 239.555 1721.44 240.765M0.999756 482.605C69.8476 504.333 146.197 506.598 218.139 482.173C296.771 455.467 329.509 405.339 394.243 364.632C494.205 301.748 535.69 253.815 609.015 247.955C712.969 239.641 790.166 199.902 871.529 170.378C964.749 136.568 995.984 92.5938 1070.31 116.793C1132.4 137.069 1227.61 116.793 1279.69 110.536C1328.75 104.573 1333.27 107.39 1401.55 146.611C1479.53 191.432 1501.24 201.285 1546.52 219.642C1584.22 234.939 1640.97 254.558 1722.84 254.437M0.999756 498.508C71.3515 521.29 144.175 522.155 210.482 499.683C288.405 473.098 318.326 422.21 386.033 380.414C479.374 322.802 520.289 283.322 594.097 276.269C706.453 265.5 789.682 222.114 877.699 187.128C977.782 147.372 1011.44 100.511 1093.77 119.715C1159.07 134.961 1245.15 120.372 1292.43 116.811C1336.66 113.475 1341.59 117.105 1412.13 160.992C1490.73 209.876 1510.36 218.743 1549.67 235.095C1586.78 250.548 1642.65 270.15 1724.25 268.698M0.999756 515.413C72.838 539.25 142.135 538.783 202.807 518.006C280.038 491.542 307.09 439.824 377.822 397.008C464.353 344.616 504.87 313.64 579.197 305.395C699.988 291.999 789.233 245.155 883.853 204.707C990.884 158.953 1027.32 110.19 1117.21 123.466C1185.55 133.56 1262.61 124.676 1305.19 123.898C1344.56 123.172 1349.94 127.597 1422.73 176.186C1501.98 229.097 1519.52 237.083 1552.8 251.378C1589.32 267.039 1644.41 286.571 1725.65 283.788M0.999756 532.612C74.3418 557.503 140.113 555.671 195.132 536.726C271.672 510.366 295.803 457.715 369.612 414C449.384 366.741 489.4 344.322 564.28 334.919C693.437 318.705 788.818 268.577 890.007 222.667C1004.09 170.932 1043.6 120.977 1140.65 127.597C1211.86 132.454 1280.09 129.326 1317.92 131.383C1352.43 133.232 1358.34 138.418 1433.3 191.778C1513.32 248.699 1528.51 255.959 1555.93 268.059C1591.83 283.978 1645.98 303.407 1727.05 299.276M0.999756 551.332C75.8456 577.261 138.039 573.976 187.458 556.95C263.254 530.538 284.429 476.97 361.401 432.495C434.38 390.318 473.912 376.49 549.38 365.946C686.834 346.742 788.437 293.52 896.091 242.13C1017.09 184.414 1060.63 141.114 1164.02 133.232C1237.69 127.632 1297.48 135.479 1330.61 140.371C1360.29 144.761 1366.74 150.742 1443.83 208.856C1524.62 269.804 1537.48 276.269 1558.99 286.208C1594.21 302.508 1647.59 321.713 1728.38 316.25M0.999756 569.862C77.3322 596.845 136.016 592.213 179.8 577.001C254.888 550.71 272.951 495.864 353.19 450.818C419.359 413.671 458.389 408.468 534.463 396.801C680.196 374.451 788.074 318.273 902.331 261.438C1030.4 197.707 1078.04 150.811 1187.54 138.712C1263.6 130.345 1315.06 141.356 1343.42 149.187C1368.29 156.101 1375.33 162.842 1454.48 225.778C1536.14 290.703 1546.54 296.528 1562.2 304.22C1596.63 321.125 1649.34 339.845 1729.87 333.052M0.999756 588.409C78.7842 616.429 134.098 610.466 172.125 597.052C246.453 570.882 261.353 514.48 344.98 469.14C404.338 436.954 442.85 440.446 519.563 427.655C673.489 401.986 787.729 342.956 908.485 280.729C1043.62 210.999 1095.5 160.439 1210.98 144.174C1289.71 133.094 1332.62 147.147 1356.18 158.002C1376.28 167.267 1383.83 174.924 1465.08 242.701C1547.61 311.618 1555.48 316.855 1565.33 322.214C1598.64 340.346 1651 357.995 1731.27 349.87" stroke="url(#paint0_linear_17_465)" stroke-miterlimit="10"/>
<defs>
<linearGradient id="paint0_linear_17_465" x1="866.135" y1="140.13" x2="866.135" y2="608.285" gradientUnits="userSpaceOnUse">
<stop stop-color="white"/>
<stop offset="1" stop-color="#878787"/>
</linearGradient>
</defs>
</svg>
