<svg width="100%" height="100%" viewBox="0 0 390 503" fill="none" xmlns="http://www.w3.org/2000/svg">
<g filter="url(#filter0_f_63_3025)">
<path d="M0 0.000366211H390V504H0V0.000366211Z" fill="#00DB16"/>
<path d="M206.773 96.2445C2.996 88.27 -106.933 274.407 -155.926 306.863L-449.647 436.586L493.486 455.988C566.522 357.434 688.631 166.52 592.779 191.298C472.963 222.27 461.494 106.213 206.773 96.2445Z" fill="url(#paint0_linear_63_3025)" fill-opacity="0.2"/>
<path d="M-207.911 -112.34C-196.619 -156.791 -125.584 -230.171 68.225 -168.083C218.818 -119.839 291.272 -53.3109 303.994 42.5079C339.503 18.3192 386.944 -4.09897 448.984 -23.5816C798.527 -133.351 779.575 288.575 726.406 513.26C698.535 611.309 585.336 785.797 355.509 699.353C125.682 612.91 232.02 448.37 313.917 376.905C276.778 344.514 237.835 296.427 221.057 243.126C121.345 304.094 -48.2565 297.946 -167.066 212.77C-335.492 92.0233 -237.211 -22.724 -207.911 -112.34Z" fill="#1FB7CD"/>
<path d="M-318.548 377.247C-481.866 455.207 -405.852 518.491 -347.431 540.388C-347.431 599.99 -147.114 516.978 -34.472 627.654C106.33 765.998 79.6388 816.464 223.395 627.654C338.4 476.606 129.35 388.848 67.0995 392.038C30.5197 369.417 -81.149 206.379 -169.747 204.078C-227.683 202.573 -253.976 346.423 -318.548 377.247Z" fill="#CE42FF" fill-opacity="0.7"/>
<path d="M303.734 -97.0014C76.6437 -42.9146 182.339 0.990623 263.573 16.1824C263.573 57.5322 302.73 159.428 459.357 236.212C655.14 332.192 699.865 168.603 899.755 37.6119C1059.67 -67.1812 926.529 -88.9528 839.971 -86.7394C755.846 -112.696 530.825 -151.088 303.734 -97.0014Z" fill="#FF8139" fill-opacity="0.7"/>
</g>
<defs>
<filter id="filter0_f_63_3025" x="-587.301" y="-329.644" width="1699.54" height="1218.36" filterUnits="userSpaceOnUse" color-interpolation-filters="sRGB">
<feFlood flood-opacity="0" result="BackgroundImageFix"/>
<feBlend mode="normal" in="SourceGraphic" in2="BackgroundImageFix" result="shape"/>
<feGaussianBlur stdDeviation="68.8268" result="effect1_foregroundBlur_63_3025"/>
</filter>
<linearGradient id="paint0_linear_63_3025" x1="262.469" y1="-193.151" x2="260.901" y2="454.877" gradientUnits="userSpaceOnUse">
<stop stop-color="white"/>
<stop offset="1" stop-color="white" stop-opacity="0"/>
</linearGradient>
</defs>
</svg>
