<svg width="100%" height="100%" viewBox="0 0 780 1006" fill="none" xmlns="http://www.w3.org/2000/svg">
<g filter="url(#filter0_f_63_3025)">
<path d="M412.47 193.746C4.72054 177.789 -215.243 550.242 -313.276 615.184L-901 874.754L986.169 913.577C1132.31 716.374 1376.65 334.364 1184.85 383.944C945.105 445.918 922.157 213.692 412.47 193.746Z" fill="url(#paint0_linear_63_3025)" fill-opacity="0.2"/>
<path d="M-417.295 -223.624C-394.701 -312.568 -252.563 -459.398 135.241 -335.162C436.572 -238.628 581.549 -105.508 607.006 86.221C678.057 37.8204 772.985 -7.03747 897.123 -46.0213C1596.54 -265.665 1558.62 578.591 1452.23 1028.18C1396.46 1224.37 1169.96 1573.51 710.084 1400.54C250.21 1227.57 462.988 898.334 626.861 755.336C552.547 690.522 474.624 594.303 441.052 487.648C241.532 609.643 -97.8335 597.342 -335.567 426.908C-672.579 185.299 -475.923 -44.3053 -417.295 -223.624Z" fill="#1FB7CD"/>
<path d="M-638.676 756.019C-965.468 912.014 -813.368 1038.64 -696.469 1082.46C-696.469 1201.72 -295.643 1035.62 -70.2514 1257.07C211.488 1533.89 158.08 1634.87 445.73 1257.07C675.85 954.833 257.55 779.232 132.989 785.616C59.7943 740.352 -163.65 414.12 -340.93 409.515C-456.858 406.504 -509.47 694.342 -638.676 756.019Z" fill="#CE42FF" fill-opacity="0.7"/>
<path d="M606.485 -192.931C152.087 -84.706 363.579 3.14658 526.125 33.5447C526.125 116.284 604.476 320.173 917.879 473.814C1309.63 665.866 1399.13 338.533 1799.1 76.4243C2119.08 -133.262 1852.67 -176.826 1679.47 -172.398C1511.14 -224.336 1060.88 -301.157 606.485 -192.931Z" fill="#FF8139" fill-opacity="0.7"/>
</g>
<defs>
<filter id="filter0_f_63_3025" x="-1038.65" y="-520.654" width="3125.14" height="2162.31" filterUnits="userSpaceOnUse" color-interpolation-filters="sRGB">
<feFlood flood-opacity="0" result="BackgroundImageFix"/>
<feBlend mode="normal" in="SourceGraphic" in2="BackgroundImageFix" result="shape"/>
<feGaussianBlur stdDeviation="114" result="effect1_foregroundBlur_63_3025"/>
</filter>
<linearGradient id="paint0_linear_63_3025" x1="523.915" y1="-385.323" x2="520.778" y2="911.355" gradientUnits="userSpaceOnUse">
<stop stop-color="white"/>
<stop offset="1" stop-color="white" stop-opacity="0"/>
</linearGradient>
</defs>
</svg>
