<svg width="100%" height="100%" viewBox="0 0 1512 870" fill="none" xmlns="http://www.w3.org/2000/svg">
<g filter="url(#filter0_f_17_387)">
<path d="M12.3959 -256.074C31.098 -329.699 148.755 -451.24 469.768 -348.401C719.2 -268.494 839.208 -158.301 860.28 0.406525C919.094 -39.658 997.672 -76.7899 1100.43 -109.06C1679.39 -290.874 1648 407.975 1559.93 780.127C1513.77 942.529 1326.28 1231.54 945.605 1088.36C564.935 945.181 741.066 672.648 876.715 554.279C815.2 500.628 750.699 420.981 722.909 332.696C557.752 433.679 276.836 423.496 80.0476 282.416C-198.921 82.4203 -36.1348 -107.639 12.3959 -256.074Z" fill="#1FB7CD"/>
<path d="M426.144 167.844C155.636 296.972 281.54 401.792 378.305 438.061C378.305 536.781 710.096 399.287 896.668 582.602C1129.88 811.746 1085.67 895.333 1323.78 582.602C1514.27 332.417 1168.01 187.06 1064.9 192.344C1004.32 154.876 819.355 -115.169 672.609 -118.981C576.647 -121.473 533.097 116.79 426.144 167.844Z" fill="#CE42FF" fill-opacity="0.7"/>
<path d="M-134.856 329.803C-405.364 516.083 -279.46 667.298 -182.695 719.62C-182.695 862.033 149.096 663.683 335.668 928.134C568.883 1258.7 524.673 1379.28 762.781 928.134C953.268 567.216 607.012 357.524 503.904 365.147C443.316 311.095 258.356 -78.473 111.609 -83.972C15.6475 -87.5679 -27.9032 256.152 -134.856 329.803Z" fill="#39E540" fill-opacity="0.7"/>
<path d="M1157.15 1034.9C1614.53 926.006 1401.65 837.613 1238.04 807.027C1238.04 723.779 1159.18 518.635 843.715 364.047C449.39 170.813 359.311 500.162 -43.2866 763.884C-365.365 974.861 -97.2114 1018.69 77.125 1014.24C246.559 1066.5 699.772 1143.79 1157.15 1034.9Z" fill="#FF8139" fill-opacity="0.7"/>
</g>
<defs>
<filter id="filter0_f_17_387" x="-526" y="-616" width="2363" height="2067" filterUnits="userSpaceOnUse" color-interpolation-filters="sRGB">
<feFlood flood-opacity="0" result="BackgroundImageFix"/>
<feBlend mode="normal" in="SourceGraphic" in2="BackgroundImageFix" result="shape"/>
<feGaussianBlur stdDeviation="114" result="effect1_foregroundBlur_17_387"/>
</filter>
</defs>
</svg>
