<svg width="100%" height="100%" viewBox="0 0 3024 1740" fill="none" xmlns="http://www.w3.org/2000/svg">
<g filter="url(#filter0_f_66_120)">
<path d="M29.7919 -515.147C67.196 -662.398 302.511 -905.48 944.536 -699.803C1443.4 -539.987 1683.42 -319.602 1725.56 -2.18686C1843.19 -82.3158 2000.35 -156.58 2205.86 -221.119C3363.78 -584.748 3301 812.951 3124.87 1557.25C3032.54 1882.06 2657.55 2460.08 1896.21 2173.72C1134.87 1887.36 1487.13 1342.3 1758.43 1105.56C1635.4 998.256 1506.4 838.962 1450.82 662.391C1120.51 864.358 558.672 843.993 165.095 561.833C-392.842 161.841 -67.2695 -218.278 29.7919 -515.147Z" fill="#1FB7CD"/>
<path d="M857.288 332.689C316.272 590.944 568.079 800.585 761.61 873.123C761.61 1070.56 1425.19 795.574 1798.34 1162.2C2264.77 1620.49 2176.35 1787.67 2652.56 1162.2C3033.54 661.834 2341.02 371.12 2134.81 381.688C2013.63 306.752 1643.71 -233.337 1350.22 -240.961C1158.3 -245.946 1071.19 230.581 857.288 332.689Z" fill="#CE42FF" fill-opacity="0.7"/>
<path d="M-264.712 656.606C-805.728 1029.17 -553.921 1331.6 -360.39 1436.24C-360.39 1721.07 303.192 1324.37 676.336 1853.27C1142.77 2514.4 1054.35 2755.56 1530.56 1853.27C1911.54 1131.43 1219.02 712.047 1012.81 727.293C891.632 619.189 521.711 -159.946 228.217 -170.944C36.295 -178.136 -50.8064 509.305 -264.712 656.606Z" fill="#39E540" fill-opacity="0.7"/>
<path d="M2319.31 2066.8C3234.07 1849.01 2808.31 1672.23 2481.08 1611.05C2481.08 1444.56 2323.35 1034.27 1692.43 725.095C903.78 338.627 723.622 997.324 -81.5732 1524.77C-725.73 1946.72 -189.423 2034.39 159.25 2025.48C498.118 2129.99 1404.55 2284.58 2319.31 2066.8Z" fill="#FF8139" fill-opacity="0.7"/>
</g>
<defs>
<filter id="filter0_f_66_120" x="-819" y="-1007" width="4270" height="3678" filterUnits="userSpaceOnUse" color-interpolation-filters="sRGB">
<feFlood flood-opacity="0" result="BackgroundImageFix"/>
<feBlend mode="normal" in="SourceGraphic" in2="BackgroundImageFix" result="shape"/>
<feGaussianBlur stdDeviation="228" result="effect1_foregroundBlur_66_120"/>
</filter>
</defs>
</svg>
