<svg width="100%" height="100%" viewBox="0 0 1282 1668" fill="none" xmlns="http://www.w3.org/2000/svg">
<g filter="url(#filter0_f_63_3024)">
<path d="M605.499 317.824C-69.5452 291.407 -433.704 908.017 -596 1015.53L-1569 1445.26L1555.28 1509.53C1797.23 1183.06 2201.73 550.623 1884.21 632.704C1487.3 735.305 1449.31 350.845 605.499 317.824Z" fill="url(#paint0_linear_63_3024)" fill-opacity="0.2"/>
<path d="M-768.208 -373.147C-730.804 -520.398 -495.489 -763.48 146.536 -557.803C645.401 -397.987 885.415 -177.602 927.56 139.813C1045.19 59.6842 1202.35 -14.5798 1407.86 -79.119C2565.78 -442.748 2503 954.951 2326.87 1699.25C2234.54 2024.06 1859.55 2602.08 1098.21 2315.72C336.871 2029.36 689.133 1484.3 960.431 1247.56C837.401 1140.26 708.398 980.962 652.818 804.391C322.505 1006.36 -239.328 985.993 -632.905 703.833C-1190.84 303.841 -865.269 -76.2781 -768.208 -373.147Z" fill="#1FB7CD"/>
<path d="M-1134.71 1248.69C-1675.73 1506.94 -1423.92 1716.59 -1230.39 1789.12C-1230.39 1986.56 -566.808 1711.57 -193.664 2078.2C272.767 2536.49 184.347 2703.67 660.563 2078.2C1041.54 1577.83 349.024 1287.12 142.808 1297.69C21.6319 1222.75 -348.289 682.663 -641.783 675.039C-833.705 670.054 -920.806 1146.58 -1134.71 1248.69Z" fill="#CE42FF" fill-opacity="0.7"/>
<path d="M926.699 -322.334C174.424 -143.163 524.558 2.28044 793.66 52.6057C793.66 189.584 923.372 527.129 1442.22 781.489C2090.79 1099.44 2238.95 557.525 2901.12 123.594C3430.85 -223.55 2989.81 -295.672 2703.07 -288.339C2424.39 -374.326 1678.97 -501.505 926.699 -322.334Z" fill="#FF8139" fill-opacity="0.7"/>
</g>
<defs>
<filter id="filter0_f_63_3024" x="-1797" y="-865" width="5174" height="3580" filterUnits="userSpaceOnUse" color-interpolation-filters="sRGB">
<feFlood flood-opacity="0" result="BackgroundImageFix"/>
<feBlend mode="normal" in="SourceGraphic" in2="BackgroundImageFix" result="shape"/>
<feGaussianBlur stdDeviation="228" result="effect1_foregroundBlur_63_3024"/>
</filter>
<linearGradient id="paint0_linear_63_3024" x1="790" y1="-640.846" x2="784.807" y2="1505.85" gradientUnits="userSpaceOnUse">
<stop stop-color="white"/>
<stop offset="1" stop-color="white" stop-opacity="0"/>
</linearGradient>
</defs>
</svg>
